<?xml version="1.0" encoding="UTF-8"?>
<svg xmlns="http://www.w3.org/2000/svg" width="115" height="34" viewBox="0 0 115 34" fill="none">
  <g clip-path="url(#clip0_15441_4240)">
    <path d="M18.227 0H15.8751C15.5505 0 15.2874 0.263185 15.2874 0.58779V9.40808C15.2874 12.6696 12.6181 15.3203 9.3494 15.288C6.11227 15.2565 3.52743 12.5708 3.52743 9.33293V0.58779C3.52743 0.263185 3.26424 0 2.93964 0H0.58779C0.263185 0 0 0.263185 0 0.58779V9.31715C0 14.5177 4.1811 18.8024 9.38166 18.8168C14.5815 18.8313 18.8168 14.6052 18.8168 9.40876V0.588477C18.8168 0.263871 18.5537 0.00068627 18.2291 0.00068627L18.227 0Z" fill="#333333"></path>
    <path d="M24.6949 0.876V0.600119C24.6949 0.275514 24.4317 0.0123291 24.1071 0.0123291H21.7553C21.4307 0.0123291 21.1675 0.275514 21.1675 0.600119V5.07872C21.9546 3.3826 23.1803 1.93183 24.6956 0.876343H24.6949V0.876Z" fill="#AF71DB"></path>
    <path d="M30.5753 0H30.5482C25.3476 0.0144117 21.1665 4.29914 21.1665 9.49969V18.2291C21.1665 18.5537 21.4297 18.8168 21.7543 18.8168H24.1061C24.4307 18.8168 24.6939 18.5537 24.6939 18.2291V9.40876C24.6939 6.14726 27.3632 3.49723 30.6319 3.5288C33.869 3.56037 36.4539 6.24677 36.4539 9.48391V18.2291C36.4539 18.5537 36.717 18.8168 37.0416 18.8168H39.3935C39.7181 18.8168 39.9813 18.5537 39.9813 18.2291V9.40876C39.9813 4.2209 35.76 0.00068627 30.5732 0.00068627L30.5753 0Z" fill="#333333"></path>
    <path d="M77.9115 0C72.7236 0 68.5034 4.22022 68.5034 9.40808C68.5034 14.5959 72.7236 18.8168 77.9115 18.8168C83.0994 18.8168 87.3206 14.5966 87.3206 9.40808C87.3206 4.21953 83.0997 0 77.9115 0ZM77.9115 15.2887C74.6692 15.2887 72.0315 12.6507 72.0315 9.40876C72.0315 6.16682 74.6696 3.5288 77.9115 3.5288C81.1534 3.5288 83.7918 6.16682 83.7918 9.40876C83.7918 12.6507 81.1534 15.2887 77.9115 15.2887Z" fill="#333333"></path>
    <path d="M42.9242 0H45.2761C45.6007 0 45.8639 0.263185 45.8639 0.58779V18.2284C45.8639 18.553 45.6 18.8162 45.2761 18.8162H42.9242C42.5996 18.8162 42.3364 18.5523 42.3364 18.2284V0.58779C42.3364 0.263185 42.6003 0 42.9242 0Z" fill="#333333"></path>
    <path d="M65.7467 12.077H62.9464C62.7254 12.077 62.5202 12.1923 62.4087 12.3824C61.3862 14.1306 59.4869 15.3069 57.3183 15.3021C54.1821 15.2949 51.5808 12.7907 51.4589 9.65685C51.3289 6.31025 54.0139 3.54596 57.3324 3.54596C59.4825 3.54596 61.3666 4.70712 62.3916 6.4355C62.5137 6.64138 62.7361 6.76731 62.9759 6.76731H65.734C66.0466 6.76731 66.2618 6.4554 66.153 6.16305C64.7873 2.47915 61.1769 -0.124217 56.9917 0.0243601C52.0577 0.199702 48.0719 4.21541 47.9319 9.15072C47.7809 14.4607 52.0563 18.8285 57.3327 18.8285C61.3786 18.8285 64.8343 16.2608 66.1595 12.6689C66.2652 12.3813 66.0545 12.0763 65.7485 12.0763L65.7471 12.077H65.7467Z" fill="#333333"></path>
    <path d="M90.6843 18.3008V0.548008C90.6843 0.189088 90.8638 0.0103149 91.2224 0.0103149H93.5083C93.8679 0.0103149 94.0464 0.189775 94.0464 0.548008V18.3008C94.0464 18.6597 93.8669 18.8385 93.5083 18.8385H91.2224C90.8638 18.8385 90.6843 18.6597 90.6843 18.3008Z" fill="#AF71DB"></path>
    <path d="M97.0327 18.3008V0.548008C97.0327 0.189088 97.2111 0.0103149 97.5701 0.0103149H104.725C106.77 0.0103149 108.567 0.40492 110.118 1.19379C111.669 1.98334 112.87 3.08583 113.722 4.5023C114.574 5.91876 115 7.55071 115 9.39746C115 11.2442 114.574 12.8806 113.722 14.3064C112.87 15.7321 111.669 16.8442 110.118 17.6413C108.567 18.4401 106.77 18.8385 104.725 18.8385H97.5701C97.2115 18.8385 97.0327 18.6597 97.0327 18.3008ZM99.2109 15.6652H104.806C106.168 15.6652 107.356 15.414 108.37 14.9123C109.383 14.4103 110.163 13.6932 110.71 12.7609C111.257 11.8282 111.53 10.7079 111.53 9.39849C111.53 7.44434 110.929 5.91979 109.728 4.82553C108.527 3.7323 106.886 3.18534 104.806 3.18534H99.2113L100.422 2.02829V16.8222L99.2113 15.6652H99.2109Z" fill="#AF71DB"></path>
    <path d="M43.4648 33.6186C40.8069 33.6186 38.4492 32.162 38.4492 28.2129C38.4492 24.2637 40.8217 22.8071 43.4648 22.8071C45.6722 22.8071 47.414 23.7834 47.9547 25.9454L46.0476 26.4409C45.6873 25.1346 44.8312 24.5338 43.4648 24.5338C41.708 24.5338 40.4617 25.5399 40.4617 28.2129C40.4617 30.8859 41.708 31.892 43.4648 31.892C44.9365 31.892 45.7323 31.2012 46.0926 29.9999L47.9246 30.5256C47.4442 32.5529 45.7621 33.619 43.4648 33.619V33.6186ZM51.1809 33.4683C49.9195 33.4683 49.2288 32.7625 49.2288 31.486V22.9265L51.1058 22.6863V31.4558C51.1058 31.8312 51.3161 32.0563 51.6764 32.0563H51.9615V33.468H51.1806L51.1809 33.4683ZM56.7404 33.6186C54.638 33.6186 52.8211 32.4774 52.8211 29.6695C52.8211 26.8616 54.638 25.7203 56.7404 25.7203C58.8428 25.7203 60.6597 26.8314 60.6597 29.6695C60.6597 32.5076 58.8579 33.6186 56.7404 33.6186ZM54.7883 29.6691C54.7883 31.4109 55.4341 32.1919 56.7404 32.1919C58.0467 32.1919 58.7076 31.4109 58.6925 29.6691C58.6774 27.9274 58.0467 27.1464 56.7404 27.1464C55.4341 27.1464 54.7883 27.9274 54.7883 29.6691ZM64.8116 33.6334C63.1597 33.6334 62.0936 32.6424 62.0936 30.2545V25.8696H63.9558V30.1492C63.9558 31.3354 64.3762 32.2063 65.5476 32.2063C66.7191 32.2063 67.2595 31.4706 67.2595 29.7436V25.8693H69.1217V33.4677H67.2897V32.9121L67.5749 31.7108L67.3796 31.6508C66.9442 32.9121 66.2233 33.633 64.8119 33.633L64.8116 33.6334ZM73.7612 33.6186C72.1245 33.6186 70.6377 32.6575 70.6377 29.6544C70.6377 26.6513 72.1241 25.7053 73.7612 25.7053C75.1729 25.7053 75.9388 26.3057 76.389 27.4621V22.9121L78.2512 22.6719V33.4687H76.4192V32.8829L76.7194 31.7118L76.5242 31.6518C76.1038 32.8833 75.3228 33.619 73.7612 33.619V33.6186ZM72.575 29.654C72.575 31.3958 73.1755 32.1919 74.4822 32.1919C75.7888 32.1919 76.3893 31.5011 76.3893 29.654C76.3893 27.807 75.7435 27.1313 74.4822 27.1313C73.2208 27.1313 72.575 27.9271 72.575 29.654Z" fill="#AF71DB"></path>
    <path d="M91.5072 33.8107L92.9583 30.1234L92.6375 30.6038C90.9976 32.97 88.0477 34.3282 85.1623 33.8797C82.6498 33.4892 82.059 31.684 82.7168 29.4172C83.6278 26.2782 85.8942 23.7157 89.2329 23.1849C91.6637 22.7981 94.499 23.3231 94.3092 26.3733C94.3 26.5249 94.2557 26.6876 94.2389 26.8375C94.2358 26.8653 94.2094 26.9243 94.2567 26.9189L95.7123 23.236L98.5946 23.235L99.914 28.2492L99.9332 28.2811L100.556 28.2684L102.57 23.2315H105.46L101.261 33.808H98.3586L97.0337 28.7104L96.424 28.7275L94.3971 33.8104H91.5072V33.8107ZM89.3633 25.5789C87.7241 25.6523 86.8162 26.6567 86.1642 28.0546C85.3668 29.7645 84.9454 31.6953 87.5989 31.4455C89.3629 31.2794 90.3004 29.9079 90.8648 28.3755C91.4547 26.7744 91.4547 25.4852 89.3633 25.5789Z" fill="#AF71DB"></path>
    <path d="M114.014 23.2319L113.022 25.7368L107.767 25.7529L107.115 27.3516H111.647L110.757 29.6029L106.24 29.6187L105.562 31.2678H110.832L109.839 33.8108H101.666L105.842 23.2319H114.014Z" fill="#AF71DB"></path>
  </g>
  <defs>
    <clipPath id="clip0_15441_4240">
      <rect width="115" height="33.9649" fill="white"></rect>
    </clipPath>
  </defs>
</svg>
